<?xml version="1.0" encoding="UTF-8"?>
<svg width="1024" height="1024" viewBox="0 0 1024 1024" xmlns="http://www.w3.org/2000/svg">
  <defs>
    <linearGradient id="g" x1="0" y1="0" x2="1" y2="1">
      <stop offset="0%" stop-color="#6366F1"/>
      <stop offset="100%" stop-color="#22D3EE"/>
    </linearGradient>
    <filter id="shadow" x="-20%" y="-20%" width="140%" height="140%">
      <feDropShadow dx="0" dy="10" stdDeviation="20" flood-color="#000" flood-opacity="0.25"/>
    </filter>
  </defs>

  <rect x="0" y="0" width="1024" height="1024" rx="200" fill="#0B0F19"/>
  <g filter="url(#shadow)">
    <circle cx="512" cy="420" r="180" fill="url(#g)"/>
    <path d="M280 640 h464 a40 40 0 0 1 40 40 v80 a40 40 0 0 1 -40 40 H280 a40 40 0 0 1 -40 -40 v-80 a40 40 0 0 1 40 -40 z"
          fill="#0F172A" stroke="url(#g)" stroke-width="6"/>
  </g>

  <!-- Badge/check like certificate mark -->
  <g transform="translate(372,290) scale(1.0)">
    <circle cx="140" cy="130" r="96" fill="#0F172A" stroke="#A5B4FC" stroke-width="8"/>
    <path d="M95 132 l34 34 60 -68" fill="none" stroke="#34D399" stroke-width="14" stroke-linecap="round" stroke-linejoin="round"/>
  </g>

  <text x="512" y="760" font-family="SF Pro Text, Arial, sans-serif" font-size="92" text-anchor="middle" fill="#E5E7EB">
    Sertifikita
  </text>
</svg>

